<svg xmlns="http://www.w3.org/2000/svg" width="240" height="240" viewBox="0 0 240 240">
  <rect width="240" height="240" fill="#ffffff"/>
  <!-- Finder patterns -->
  <rect x="18" y="18" width="66" height="66" fill="#0f172a"/>
  <rect x="28" y="28" width="46" height="46" fill="#ffffff"/>
  <rect x="38" y="38" width="26" height="26" fill="#0f172a"/>

  <rect x="156" y="18" width="66" height="66" fill="#0f172a"/>
  <rect x="166" y="28" width="46" height="46" fill="#ffffff"/>
  <rect x="176" y="38" width="26" height="26" fill="#0f172a"/>

  <rect x="18" y="156" width="66" height="66" fill="#0f172a"/>
  <rect x="28" y="166" width="46" height="46" fill="#ffffff"/>
  <rect x="38" y="176" width="26" height="26" fill="#0f172a"/>

  <!-- Data modules (decorative sample pattern) -->
  <g fill="#0f172a">
    <rect x="102" y="30" width="10" height="10"/>
    <rect x="114" y="30" width="10" height="10"/>
    <rect x="126" y="30" width="10" height="10"/>
    <rect x="102" y="42" width="10" height="10"/>
    <rect x="126" y="42" width="10" height="10"/>
    <rect x="102" y="54" width="10" height="10"/>
    <rect x="114" y="54" width="10" height="10"/>

    <rect x="96" y="96" width="10" height="10"/>
    <rect x="108" y="96" width="10" height="10"/>
    <rect x="120" y="96" width="10" height="10"/>
    <rect x="132" y="96" width="10" height="10"/>
    <rect x="144" y="96" width="10" height="10"/>
    <rect x="96" y="108" width="10" height="10"/>
    <rect x="120" y="108" width="10" height="10"/>
    <rect x="144" y="108" width="10" height="10"/>
    <rect x="96" y="120" width="10" height="10"/>
    <rect x="108" y="120" width="10" height="10"/>
    <rect x="132" y="120" width="10" height="10"/>
    <rect x="144" y="120" width="10" height="10"/>
    <rect x="108" y="132" width="10" height="10"/>
    <rect x="120" y="132" width="10" height="10"/>
    <rect x="132" y="132" width="10" height="10"/>

    <rect x="96" y="156" width="10" height="10"/>
    <rect x="108" y="156" width="10" height="10"/>
    <rect x="120" y="156" width="10" height="10"/>
    <rect x="144" y="156" width="10" height="10"/>
    <rect x="96" y="168" width="10" height="10"/>
    <rect x="120" y="168" width="10" height="10"/>
    <rect x="132" y="168" width="10" height="10"/>
    <rect x="144" y="168" width="10" height="10"/>
    <rect x="108" y="180" width="10" height="10"/>
    <rect x="132" y="180" width="10" height="10"/>
    <rect x="144" y="180" width="10" height="10"/>

    <rect x="156" y="120" width="10" height="10"/>
    <rect x="168" y="120" width="10" height="10"/>
    <rect x="180" y="120" width="10" height="10"/>
    <rect x="192" y="120" width="10" height="10"/>
    <rect x="204" y="120" width="10" height="10"/>
    <rect x="156" y="132" width="10" height="10"/>
    <rect x="180" y="132" width="10" height="10"/>
    <rect x="204" y="132" width="10" height="10"/>
    <rect x="168" y="144" width="10" height="10"/>
    <rect x="192" y="144" width="10" height="10"/>
  </g>
</svg>
